<svg xmlns="http://www.w3.org/2000/svg" xmlns:xlink="http://www.w3.org/1999/xlink" width="390" height="390" viewBox="0 0 390 390"><defs><clipPath id="a"><rect width="287.429" height="303.352" fill="#fff"/></clipPath><clipPath id="c"><rect width="26.407" height="31.605" fill="#fff"/></clipPath><clipPath id="d"><rect width="72.865" height="42.07" fill="#fff"/></clipPath><clipPath id="e"><rect width="90.815" height="37.734" fill="#fff"/></clipPath><clipPath id="f"><rect width="18.353" height="20.793" fill="#fff"/></clipPath><clipPath id="g"><rect width="169.753" height="217.465" fill="#fff"/></clipPath><clipPath id="h"><rect width="106.673" height="92.428" fill="#fff"/></clipPath><clipPath id="i"><rect width="36.339" height="40.068" fill="#fff"/></clipPath><clipPath id="j"><rect width="33.81" height="20.184" fill="#fff"/></clipPath><clipPath id="k"><rect width="3.188" height="7.979" fill="#fff"/></clipPath><clipPath id="l"><rect width="33.81" height="20.173" fill="#fff"/></clipPath><clipPath id="m"><rect width="24.993" height="16.561" fill="#fff"/></clipPath><clipPath id="n"><rect width="3.201" height="7.979" fill="#fff"/></clipPath><clipPath id="o"><rect width="3.444" height="8.183" fill="#fff"/></clipPath><clipPath id="p"><rect width="11.974" height="14.249" fill="#fff"/></clipPath><clipPath id="q"><rect width="40.852" height="23.914" fill="#fff"/></clipPath><clipPath id="r"><rect width="65.503" height="29.585" fill="#fff"/></clipPath><clipPath id="s"><rect width="36.1" height="32.113" fill="#fff"/></clipPath><clipPath id="t"><rect width="44.248" height="25.846" fill="#fff"/></clipPath><clipPath id="u"><rect width="50.11" height="106.943" fill="#fff"/></clipPath></defs><g transform="translate(-50 -1392)"><g transform="translate(0 3)"><rect width="390" height="390" transform="translate(50 1389)" fill="none"/><g transform="translate(97.596 1432.324)"><g transform="translate(0 0)" clip-path="url(#a)"><g clip-path="url(#a)"><path d="M311.719,7.37l-.008.015a11.483,11.483,0,0,1,3.116,2.652L297.388,33.023l10.226,1.672,7.211,4.162c-4.113,9.775-11.279,18.826-19.452,23.545-6.389,3.687-12.171,4.031-16.353,1.6l-7.195-4.15a.031.031,0,0,0-.015-.01l-.006,0c-4.173-2.424-6.756-7.606-6.754-14.978,0-14.759,10.348-32.7,23.116-40.073,6.389-3.687,12.15-4,16.33-1.57l.007-.014Z" transform="translate(-127.82 -1.028)" fill="#fff"/><path d="M265.054,89.281l10.122-1.319,2.083.339,7.211,4.162c-4.1,9.761-11.259,18.8-19.411,23.52Z" transform="translate(-97.465 -54.635)" fill="#cee7fd"/><path d="M319.912,7.385c-4.181-2.434-9.948-2.123-16.336,1.567C290.81,16.325,280.46,34.263,280.46,49.024c0,7.373,2.584,12.559,6.762,14.981l-7.2-4.15a.032.032,0,0,0-.015-.01l-.006,0c-4.173-2.423-6.756-7.606-6.754-14.978,0-14.758,10.349-32.7,23.116-40.072,6.389-3.687,12.15-4,16.329-1.57l.008-.014,7.217,4.165Z" transform="translate(-136.022 -1.028)" fill="#cee7fd"/><path d="M284.043,65.156a21.593,21.593,0,0,0,10.625-3.247c8.009-4.624,15.379-13.536,19.713-23.84a.62.62,0,0,0-.261-.776l-7.211-4.163a.607.607,0,0,0-.21-.075l-9.211-1.5L314.3,9.383a.618.618,0,0,0-.014-.768,12.144,12.144,0,0,0-3.16-2.721.572.572,0,0,0-.117-.089L303.8,1.641a.639.639,0,0,0-.132-.057c-4.556-2.577-10.524-2-16.826,1.641-12.917,7.458-23.424,25.675-23.424,40.609,0,7.35,2.5,12.855,7.045,15.5l.007,0,.034.021,7.194,4.15a12.478,12.478,0,0,0,6.347,1.643m28.983-27.065c-4.259,9.851-11.324,18.327-18.976,22.746-5.981,3.452-11.57,4.023-15.733,1.6L271.132,58.3l-.033-.021c-4.159-2.414-6.446-7.543-6.445-14.442,0-14.54,10.231-32.276,22.806-39.537,5.961-3.439,11.54-4,15.708-1.57a.624.624,0,0,0,.134.058l6.967,4.021a.6.6,0,0,0,.114.087,10.861,10.861,0,0,1,2.632,2.141L295.879,31.622a.619.619,0,0,0,.394.985l10.115,1.653Z" transform="translate(-126.806 0)" fill="#005bea"/><path d="M262.172,49.843l-22.079-3.607-4.328-2.5,22.082-29.1,4.325,2.5c5.518,6.755,5.523,19.59,0,32.715" transform="translate(-68.212 -9.088)" fill="#3199f0"/><g transform="translate(167.554 5.544)" opacity="0.3" style="mix-blend-mode:overlay;isolation:isolate"><g transform="translate(0)"><g clip-path="url(#c)"><path d="M251.021,46.237l-4.328-2.5,22.082-29.1,4.325,2.5Z" transform="translate(-246.694 -14.632)"/></g></g></g><path d="M261.179,49.448a.617.617,0,0,0,.569-.38c5.609-13.326,5.573-26.415-.089-33.347a.613.613,0,0,0-.169-.145l-4.327-2.5a.618.618,0,0,0-.8.163l-22.082,29.1a.618.618,0,0,0,.184.91l4.327,2.5a.619.619,0,0,0,.208.075l22.08,3.606a.588.588,0,0,0,.1.009m-.407-32.856c5.242,6.528,5.246,18.852.022,31.547l-21.482-3.509-3.621-2.093,21.326-28.111Z" transform="translate(-67.219 -8.073)" fill="#005bea"/><path d="M535.422,264.332c0,1.811,1.272,2.543,2.842,1.638l32.5-18.767a6.273,6.273,0,0,0,2.84-4.918l0-53.367c0-1.807-1.275-2.541-2.842-1.635l-32.5,18.771a6.244,6.244,0,0,0-2.837,4.911Z" transform="translate(-489.042 -116.084)" fill="#fff"/><path d="M540.164,284.638l25.288-14.6v23.889a6.274,6.274,0,0,1-2.84,4.918l-27.185,15.7V292.829a10.463,10.463,0,0,1,4.736-8.191" transform="translate(-480.888 -167.725)" fill="#cee7fd"/><path d="M536.1,266.008a3.12,3.12,0,0,0,1.544-.463l32.5-18.767a6.789,6.789,0,0,0,3.113-5.391l0-53.366a2.265,2.265,0,0,0-3.662-2.109l-32.5,18.771a6.752,6.752,0,0,0-3.111,5.386l0,53.365a2.509,2.509,0,0,0,1.1,2.31,2,2,0,0,0,1.013.264m35.044-79.464a.93.93,0,0,1,.466.114,1.512,1.512,0,0,1,.56,1.362l0,53.366a5.768,5.768,0,0,1-2.567,4.444l-32.5,18.767a1.205,1.205,0,0,1-2.022-1.165l0-53.366a5.734,5.734,0,0,1,2.563-4.437l32.5-18.772a2.058,2.058,0,0,1,1-.314" transform="translate(-488.147 -115.184)" fill="#005bea"/><path d="M550.025,278.735c0,.433.308.611.684.391l25.758-14.87a1.5,1.5,0,0,0,.683-1.181c0-.432-.308-.606-.683-.389l-25.758,14.871a1.522,1.522,0,0,0-.684,1.179m4.738,3.553c0,.435.3.61.681.4l21.022-12.139a1.491,1.491,0,0,0,.682-1.181c0-.431-.3-.606-.682-.393l-21.023,12.139a1.506,1.506,0,0,0-.679,1.179m4.734-5.876a1.494,1.494,0,0,1,.679-1.176l16.29-9.408c.378-.216.683-.038.683.393a1.5,1.5,0,0,1-.683,1.179l-16.29,9.408c-.374.214-.682.039-.679-.4m-9.47-8.677c0,.433.306.608.681.391l25.76-14.87a1.508,1.508,0,0,0,.681-1.178c0-.436-.305-.611-.683-.4l-25.758,14.87a1.522,1.522,0,0,0-.681,1.183m4.734,3.553c0,.436.306.61.682.393l21.026-12.139a1.506,1.506,0,0,0,.681-1.179c0-.434-.3-.611-.683-.393l-21.022,12.139a1.509,1.509,0,0,0-.684,1.179m4.736-5.877a1.509,1.509,0,0,1,.679-1.179l16.29-9.408c.376-.216.682-.036.683.391a1.522,1.522,0,0,1-.683,1.184l-16.29,9.4c-.376.22-.679.043-.679-.391m4.092-32.618c4.774-2.75,8.643-.523,8.645,4.98s-3.871,12.207-8.648,14.966-8.643.524-8.643-4.981l8.643-4.988Z" transform="translate(-498.116 -143.859)" fill="#3199f0"/><path d="M599.459,231.855v9.97l-8.643,4.993c0-5.507,3.871-12.206,8.643-14.962" transform="translate(-535.881 -144.009)" fill="#cee7fd"/><path d="M225.73,426.848a10.465,10.465,0,0,0,9.464,0l156.949-90.617c2.619-1.512,2.62-3.959.007-5.464l-52.02-30.067a10.455,10.455,0,0,0-9.464,0L173.715,391.315c-2.614,1.507-2.614,3.954,0,5.462Z" transform="translate(-171.754 -186.064)" fill="#cee7fd"/><path d="M225.5,514.763l.017,0a2.334,2.334,0,0,1,1.358-1.879l39.8-22.978a7.444,7.444,0,0,1,5.957-.325l41.643,16.386a2.911,2.911,0,0,1,2.024,1.982,1.441,1.441,0,0,1-.008.239l.026,0v4.328h-.023a2.285,2.285,0,0,1-1.348,1.975l-53.065,30.637a6.979,6.979,0,0,1-3.752.781,5.9,5.9,0,0,1-3.433-1.17L226.312,520.7a1.979,1.979,0,0,1-.8-1.561l-.017,0Z" transform="translate(-114.323 -303.795)" fill="#3199f0"/><g transform="translate(111.176 185.316)" opacity="0.3" style="mix-blend-mode:overlay;isolation:isolate"><g clip-path="url(#d)"><path d="M274.249,512.882l39.8-22.978A7.445,7.445,0,0,1,320,489.58l25.735,10.126-54.513,31.476-17.538-14.86c-1.269-1.074-1.034-2.52.561-3.44" transform="translate(-272.874 -489.112)"/></g></g><g transform="translate(111.176 204.39)" opacity="0.3" style="mix-blend-mode:overlay;isolation:isolate"><g clip-path="url(#e)"><path d="M225.515,546.029a1.983,1.983,0,0,0,.8,1.561l28.378,24.043a5.914,5.914,0,0,0,3.434,1.168,6.963,6.963,0,0,0,3.753-.781l53.063-30.638a2.3,2.3,0,0,0,1.347-1.928l.026,0v4.328h-.024a2.285,2.285,0,0,1-1.348,1.975l-53.065,30.637a6.978,6.978,0,0,1-3.752.781,5.9,5.9,0,0,1-3.433-1.17l-28.379-24.041a1.978,1.978,0,0,1-.8-1.561l-.017,0v-4.373Z" transform="translate(-225.498 -539.453)"/></g></g><g transform="translate(111.176 210.966)" opacity="0.1" style="mix-blend-mode:overlay;isolation:isolate"><g clip-path="url(#f)"><path d="M416.767,556.81a1.982,1.982,0,0,0,.8,1.561l17.538,14.86V577.6l-17.539-14.859a1.978,1.978,0,0,1-.8-1.561l-.017,0v-4.373Z" transform="translate(-416.75 -556.81)"/></g></g><path d="M257.673,545.562a7.314,7.314,0,0,0,3.58-.867l53.066-30.637a2.9,2.9,0,0,0,1.62-2.292.51.51,0,0,0,.025-.156v-4.328a.55.55,0,0,0-.015-.127.987.987,0,0,0-.008-.189,3.416,3.416,0,0,0-2.365-2.411l-41.643-16.386a7.933,7.933,0,0,0-6.43.36l-39.8,22.978a2.912,2.912,0,0,0-1.623,2.2.513.513,0,0,0-.025.158v4.373a.547.547,0,0,0,.019.143,2.525,2.525,0,0,0,.989,1.833l28.378,24.041a6.431,6.431,0,0,0,3.758,1.3q.237.013.474.013m57.2-34.1a.494.494,0,0,0-.023.166,1.77,1.77,0,0,1-1.076,1.482l-53.065,30.637a6.474,6.474,0,0,1-3.448.709,5.422,5.422,0,0,1-3.11-1.04l-28.38-24.042a1.463,1.463,0,0,1-.6-1.131.542.542,0,0,0-.017-.148v-4.1a.522.522,0,0,0,.017-.124,1.825,1.825,0,0,1,1.085-1.417l39.8-22.978a6.864,6.864,0,0,1,5.484-.289l41.642,16.386c.958.376,1.588.959,1.685,1.56l-.007.011c0,.044-.008.089-.008.133a.544.544,0,0,0,.026.174Z" transform="translate(-113.426 -302.892)" fill="#005bea"/><path d="M299.12,85.337l4.718,2.725c.008,0,.011.009.016.009l0,0a3.329,3.329,0,0,1,1.376,3.053V203.355a10.462,10.462,0,0,1-4.734,8.193L143.548,302.161a3.352,3.352,0,0,1-3.321.348l0,0-.023-.015,0,0-4.717-2.725,0,0a3.312,3.312,0,0,1-1.4-3.064l0-112.231a10.46,10.46,0,0,1,4.736-8.191l156.95-90.614a3.35,3.35,0,0,1,3.3-.357l.005-.006.041.025s.008,0,.015.007" transform="translate(-68.605 -52.809)" fill="#3199f0"/><g transform="translate(65.473 32.214)" opacity="0.3" style="mix-blend-mode:overlay;isolation:isolate"><g clip-path="url(#g)"><path d="M142.518,176.283l156.95-90.614a3.351,3.351,0,0,1,3.3-.357l.005-.006.041.025s.009,0,.015.007l4.711,2.72a3.327,3.327,0,0,0-3.329.342L147.252,179.016a10.462,10.462,0,0,0-4.734,8.193l0,112.229a3.32,3.32,0,0,0,1.373,3.051l-4.7-2.718,0,0a3.313,3.313,0,0,1-1.4-3.064l0-112.231a10.462,10.462,0,0,1,4.736-8.191" transform="translate(-137.782 -85.023)"/></g></g><path d="M140.538,302.458a4.838,4.838,0,0,0,2.388-.721l156.952-90.613a11.079,11.079,0,0,0,5.007-8.667V90.228a3.848,3.848,0,0,0-1.647-3.526l-.027-.014,0,0L298.5,83.966l-.028-.015-.014-.008a.563.563,0,0,0-.12-.055,3.923,3.923,0,0,0-3.742.41l-156.95,90.614a11.081,11.081,0,0,0-5.009,8.664l0,112.231a3.825,3.825,0,0,0,1.672,3.538l4.719,2.726.044.023a3.006,3.006,0,0,0,1.465.365M302.7,87.655a2.853,2.853,0,0,1,1.091,2.573V202.457a9.87,9.87,0,0,1-4.461,7.72L142.379,300.79a2.85,2.85,0,0,1-2.782.343l-.033-.017-4.7-2.718a2.8,2.8,0,0,1-1.128-2.593l0-112.231a9.873,9.873,0,0,1,4.463-7.717l156.95-90.614a2.85,2.85,0,0,1,2.761-.35.556.556,0,0,0,.072.033l4.685,2.705.041.023" transform="translate(-67.709 -51.911)" fill="#005bea"/><path d="M143.471,301.726,300.423,211.11a4.194,4.194,0,0,0,1.894-3.28V103.246c0-1.2-.852-1.691-1.892-1.089L143.471,192.773a4.2,4.2,0,0,0-1.9,3.275V300.632c0,1.2.852,1.7,1.9,1.093" transform="translate(-68.528 -63.291)" fill="#fff"/><path d="M557.722,399c1.569-.906,2.84-.175,2.84,1.636v41.831a6.275,6.275,0,0,1-2.84,4.915l-.371.214v-48.38Z" transform="translate(-484.304 -247.584)" fill="#cee7fd"/><path d="M141.575,173.691v-45.6a6.283,6.283,0,0,1,2.838-4.918L163.942,111.9v52.15l-19.525,11.274c-1.57.905-2.844.175-2.842-1.636" transform="translate(69.847 -69.504)" fill="#cee7fd"/><path d="M209.18,322.7c0-14.531,10.215-32.209,22.811-39.483a22.835,22.835,0,0,1,7.952-2.917c5.108-12.447,14.2-24.061,24.607-30.069,8-4.615,15.229-5.044,20.46-2.016,3.442,1.99,6.017,5.477,7.38,10.254.336-.344.681-.665,1.025-.991-.347.328-.694.652-1.032,1-.069-.249-.159-.478-.238-.718a26.062,26.062,0,0,1,.906,3.634,32.006,32.006,0,0,1,7.92-6.725c4.949-2.853,9.429-3.127,12.675-1.265a8.754,8.754,0,0,0-.859-.4c3.74,1.63,6.113,5.8,6.113,11.994,0,11.415-8.025,25.309-17.922,31.019L232,335.839c-6.308,3.645-12.018,3.989-16.149,1.6l-2.11-1.217,2.125,1.224c-4.128-2.375-6.682-7.482-6.682-14.747" transform="translate(-110.726 -152.97)" fill="#cee7fd"/><path d="M300.64,385.876a1.107,1.107,0,0,1-.56-.553,3.6,3.6,0,0,1,.485-3.047l15.959-27.63c.856-1.488,2.262-2.293,3.122-1.8l15.962,9.191c.627.363.822,1.343.478,2.5a4.913,4.913,0,0,1-2.037,2.743l-5.481,3.167v22.965a4.869,4.869,0,0,1-2.2,3.818L309.8,406.789a1.341,1.341,0,0,1-2.206-1.268V382.555l-5.482,3.167a1.576,1.576,0,0,1-1.486.169Z" transform="translate(-162.456 -219.069)" fill="#cee7fd"/><path d="M141.727,301.635a2.262,2.262,0,0,0,1.12-.329h0L299.8,210.69a4.736,4.736,0,0,0,2.167-3.752V102.353a1.688,1.688,0,0,0-2.712-1.563L142.3,191.406a4.736,4.736,0,0,0-2.169,3.747V299.739a1.868,1.868,0,0,0,.829,1.7,1.517,1.517,0,0,0,.766.2m.574-1.276a.633.633,0,0,1-1.076-.62V195.155a3.652,3.652,0,0,1,1.622-2.8L299.8,101.737a.63.63,0,0,1,1.072.616V206.937a3.652,3.652,0,0,1-1.621,2.806Z" transform="translate(-67.632 -62.398)" fill="#005bea"/><path d="M197.639,328.012c0-14.533,10.211-32.211,22.811-39.484a22.769,22.769,0,0,1,7.946-2.919c5.107-12.444,14.2-24.061,24.613-30.07,7.821-4.515,14.9-5,20.1-2.195l.015-.019.4.228a.064.064,0,0,1,.02.01l2.1,1.215c3.458,1.987,6.044,5.482,7.411,10.274a30.275,30.275,0,0,1,6.376-5.076c5-2.888,9.529-3.132,12.78-1.191l.005-.009,2.095,1.21a8.943,8.943,0,0,0-.86-.4c3.74,1.63,6.112,5.8,6.112,11.993,0,11.415-8.024,25.31-17.922,31.02L222.66,342.423c-6.307,3.645-12.017,3.989-16.149,1.6l-2.109-1.217.008-.006c-4.181-2.36-6.776-7.478-6.771-14.789" transform="translate(-97.017 -156.275)" fill="#3199f0"/><g transform="translate(100.622 95.328)" opacity="0.3" style="mix-blend-mode:overlay;isolation:isolate"><g clip-path="url(#h)"><path d="M289.594,254.829h0l-2.185-1.265a.053.053,0,0,0-.02-.009l-.4-.229-.015.019c-5.208-2.808-12.282-2.32-20.1,2.195-10.41,6.009-19.506,17.625-24.613,30.07a22.769,22.769,0,0,0-7.946,2.919c-12.6,7.273-22.816,24.951-22.811,39.484,0,7.311,2.59,12.429,6.771,14.789l-.008.006,2.124,1.223c-4.127-2.374-6.681-7.482-6.681-14.746,0-14.53,10.215-32.208,22.811-39.483a22.839,22.839,0,0,1,7.952-2.917c5.107-12.446,14.2-24.061,24.607-30.069,8.026-4.63,15.279-5.048,20.516-1.986M305.5,261.25a32.011,32.011,0,0,0-7.92,6.726,26.048,26.048,0,0,0-.905-3.635c.079.239.169.469.238.718a30.256,30.256,0,0,1,6.382-5.083c5-2.888,9.529-3.132,12.78-1.191l.005-.009,2.095,1.21c-3.246-1.862-7.725-1.588-12.675,1.265" transform="translate(-211.502 -251.603)"/></g></g><path d="M211.568,345.2a21.282,21.282,0,0,0,10.474-3.2l68.982-39.827c10.033-5.788,18.195-19.916,18.195-31.493,0-5.609-1.948-9.888-5.39-11.953a.549.549,0,0,0-.136-.111L301.6,257.4a.57.57,0,0,0-.1-.043c-3.563-2.07-8.258-1.63-13.237,1.243a29.977,29.977,0,0,0-5.845,4.522,16.844,16.844,0,0,0-7.4-9.719l-2.1-1.214h0l-.046-.025-.374-.214a.555.555,0,0,0-.168-.063c-5.59-2.935-12.861-2.129-20.5,2.277-10.1,5.829-19.325,17.048-24.728,30.051a23.6,23.6,0,0,0-7.83,2.937c-12.734,7.35-23.09,25.275-23.085,39.957h0c0,7.226,2.465,12.623,6.956,15.212a.5.5,0,0,0,.08.057l2.11,1.217a12.276,12.276,0,0,0,6.221,1.6m90.775-86.017c3.676,1.6,5.784,5.791,5.784,11.492,0,11.229-7.917,24.932-17.648,30.546L221.5,341.047c-5.924,3.423-11.465,3.992-15.6,1.6l-2.019-1.165a.519.519,0,0,0-.086-.061c-4.192-2.365-6.5-7.448-6.493-14.312h0c0-14.335,10.106-31.835,22.538-39.01a22.28,22.28,0,0,1,7.753-2.852.548.548,0,0,0,.424-.333c5.3-12.908,14.412-24.05,24.381-29.8,7.358-4.247,14.308-5.024,19.571-2.187a.542.542,0,0,0,.138.052l.262.15a.372.372,0,0,0,.038.02l2.079,1.2c3.38,1.943,5.856,5.383,7.159,9.951a.547.547,0,0,0,.917.232,29.71,29.71,0,0,1,6.259-4.985c4.665-2.692,9.007-3.117,12.226-1.195a.544.544,0,0,0,.106.049l.934.539a.544.544,0,0,0,.262.241ZM196.2,327.109h0Z" transform="translate(-96.126 -155.372)" fill="#005bea"/><g transform="translate(139.519 133.635)" opacity="0.2" style="mix-blend-mode:overlay;isolation:isolate"><g transform="translate(0)"><g clip-path="url(#i)"><path d="M296.679,385.73c-.89.515-1.7.355-2.035-.4a3.6,3.6,0,0,1,.476-3.047l15.962-27.629c.861-1.488,2.265-2.295,3.121-1.8l15.961,9.2c.632.363.821,1.348.483,2.494a4.9,4.9,0,0,1-2.041,2.748l-5.476,3.16-.005,10.215L302.16,392.776l0-10.215Z" transform="translate(-294.474 -352.708)"/></g></g></g><path d="M260.161,399.105l15.961-27.624c.861-1.491,2.265-2.3,3.122-1.8l15.965,9.191a.053.053,0,0,1,.011.011l2.195,1.264c.627.363.822,1.343.478,2.5a4.914,4.914,0,0,1-2.037,2.744l-5.481,3.166v22.965a4.868,4.868,0,0,1-2.2,3.818L271.612,424.9a1.551,1.551,0,0,1-1.56.16h0l-2.252-1.3.01-.021a1.559,1.559,0,0,1-.608-1.384l0-20.413-3.271,1.89a1.468,1.468,0,0,1-1.7.051l-2.026-1.168,0-.019a1.137,1.137,0,0,1-.517-.538,3.617,3.617,0,0,1,.477-3.052" transform="translate(-108.958 -229.525)" fill="#fff"/><path d="M268.9,401.939l0,20.416a1.559,1.559,0,0,0,.607,1.383l-.009.021,2.255,1.3a1.549,1.549,0,0,1-.647-1.428V400.664Zm30.219-21.791-15.961-9.19c-.86-.5-2.266.307-3.122,1.8l-15.959,27.631a3.6,3.6,0,0,0-.485,3.047,1.11,1.11,0,0,0,.56.553l-.011.019-2.24-1.29,0-.019a1.134,1.134,0,0,1-.517-.538,3.617,3.617,0,0,1,.477-3.052l15.961-27.624c.861-1.491,2.265-2.3,3.122-1.8l15.965,9.191.011.011Z" transform="translate(-110.664 -229.525)" fill="#cee7fd"/><path d="M269.732,424.855a2.54,2.54,0,0,0,1.265-.381l16.557-9.557a5.413,5.413,0,0,0,2.478-4.292V387.976l5.208-3.009a5.468,5.468,0,0,0,2.287-3.061c.418-1.4.131-2.63-.728-3.128l-2.154-1.24,0,0a.449.449,0,0,0-.05-.033l-15.965-9.191a1.8,1.8,0,0,0-1.4-.144,4.434,4.434,0,0,0-2.47,2.143L258.8,397.936h0a4.086,4.086,0,0,0-.5,3.552,1.636,1.636,0,0,0,.623.713.518.518,0,0,0,.114.09l1.991,1.147a2.011,2.011,0,0,0,2.284-.031l2.451-1.416,0,19.467a2.153,2.153,0,0,0,.718,1.742.508.508,0,0,0,.153.137l2.252,1.3.031.016a1.674,1.674,0,0,0,.812.2M294,378.427a.5.5,0,0,0,.054.035l2.195,1.264c.393.228.487,1,.227,1.869a4.384,4.384,0,0,1-1.787,2.427l-5.481,3.167a.545.545,0,0,0-.273.473v22.965a4.349,4.349,0,0,1-1.933,3.345l-16.557,9.557a1.067,1.067,0,0,1-1.015.159l-.023-.013-2.1-1.209a.5.5,0,0,0-.1-.082,1.057,1.057,0,0,1-.358-.925l0-20.413a.546.546,0,0,0-.82-.473l-3.271,1.889c-.444.256-.848.294-1.082.1a.549.549,0,0,0-.074-.052l-1.915-1.1a.493.493,0,0,0-.116-.089.588.588,0,0,1-.283-.285,3.166,3.166,0,0,1,.452-2.553l15.961-27.624a3.451,3.451,0,0,1,1.805-1.633.737.737,0,0,1,.569.034Zm.315-.449h0Z" transform="translate(-108.068 -228.629)" fill="#005bea"/><path d="M70.961,178.081c0,1.811,1.272,2.541,2.842,1.636l32.507-18.77a6.265,6.265,0,0,0,2.839-4.913v-45.6c0-1.808-1.275-2.541-2.84-1.635L73.8,127.564a6.282,6.282,0,0,0-2.837,4.918Z" transform="translate(151.393 -67.335)" fill="#fff"/><path d="M71.635,179.755a3.13,3.13,0,0,0,1.546-.464l32.508-18.77a6.773,6.773,0,0,0,3.112-5.387v-45.6a2.264,2.264,0,0,0-3.66-2.108L72.631,126.191a6.8,6.8,0,0,0-3.111,5.391l0,45.6h0a2.5,2.5,0,0,0,1.1,2.309,2,2,0,0,0,1.015.266m35.049-71.7a.924.924,0,0,1,.466.114,1.506,1.506,0,0,1,.558,1.361v45.6a5.752,5.752,0,0,1-2.565,4.439l-32.508,18.77a1.2,1.2,0,0,1-2.022-1.162h0l0-45.6a5.775,5.775,0,0,1,2.565-4.445l32.509-18.766a2.055,2.055,0,0,1,1-.314" transform="translate(152.289 -66.435)" fill="#005bea"/><path d="M96.042,137.907c-2.395-1.381-6.274.859-8.666,5s-2.392,8.625,0,10.006,6.271-.858,8.663-5,2.393-8.624,0-10.006" transform="translate(157.168 -85.403)" fill="#cee7fd"/><path d="M107.942,152.316a2.708,2.708,0,0,0-3.428-1.678,5.133,5.133,0,0,0,.993-2.808c0-1.531-1.074-2.148-2.4-1.384a5.323,5.323,0,0,0-2.4,4.157c0,.921.4,1.5.993,1.659a12.218,12.218,0,0,0-3.425,5.64c1.123,1.01,2.867,1.076,4.835-.058a13.017,13.017,0,0,0,4.836-5.529m-24.877,7.973a1.507,1.507,0,0,1,.68-1.181l7.96-4.593c.377-.22.681-.043.681.391a1.5,1.5,0,0,1-.683,1.181l-7.958,4.6c-.378.218-.682.041-.68-.393M85.4,155.8c0,.435.305.611.682.394l5.625-3.249a1.512,1.512,0,0,0,.683-1.181c0-.432-.306-.606-.683-.388l-5.626,3.248A1.506,1.506,0,0,0,85.4,155.8m-2.334,7.636a1.51,1.51,0,0,1,.682-1.181l7.961-4.593c.375-.216.68-.043.682.391a1.5,1.5,0,0,1-.682,1.181l-7.96,4.6c-.377.217-.68.043-.682-.393m0,6.286a1.5,1.5,0,0,1,.684-1.177l7.961-4.6c.375-.218.678-.042.68.391a1.518,1.518,0,0,1-.683,1.185l-7.96,4.593c-.377.217-.68.04-.682-.4m3.812-5.345c0,.438.3.613.682.393l4.147-2.393a1.507,1.507,0,0,0,.681-1.181c0-.433-.3-.611-.681-.389l-4.147,2.39a1.52,1.52,0,0,0-.682,1.181m-3.812,13.252a1.512,1.512,0,0,1,.68-1.179L109.5,161.575c.377-.218.684-.041.684.391a1.516,1.516,0,0,1-.68,1.182l-25.76,14.87c-.377.217-.68.042-.682-.393m4.734,3.553A1.5,1.5,0,0,1,88.48,180l21.025-12.139c.378-.216.681-.04.681.389a1.508,1.508,0,0,1-.685,1.184L88.479,181.576c-.378.216-.681.038-.681-.4m4.734-5.876c0,.438.307.613.681.4l16.292-9.408a1.514,1.514,0,0,0,.681-1.179c0-.436-.306-.61-.68-.393l-16.293,9.408a1.508,1.508,0,0,0-.681,1.175m-9.468,13.326a1.5,1.5,0,0,1,.68-1.177L109.5,172.578c.378-.218.684-.038.684.393a1.513,1.513,0,0,1-.684,1.179L83.746,189.022c-.376.217-.682.042-.682-.393m4.734,3.555A1.511,1.511,0,0,1,88.479,191L109.5,178.866c.377-.218.68-.042.682.391a1.5,1.5,0,0,1-.681,1.181L88.48,192.577c-.376.216-.682.041-.682-.393m4.734-5.878c0,.435.308.613.681.4l16.293-9.408a1.511,1.511,0,0,0,.681-1.181c0-.436-.307-.611-.682-.391l-16.295,9.406a1.514,1.514,0,0,0-.679,1.177" transform="translate(145.77 -90.757)" fill="#3199f0"/><path d="M441.9,745.941a.015.015,0,0,1,0-.011,2.835,2.835,0,0,1-1.193,2.289A115.3,115.3,0,0,1,418.9,760.807a10.921,10.921,0,0,1-8.552-.356c-.141-.079-.273-.158-.416-.239a3.209,3.209,0,0,1-1.8-2.7s0,0,0,.009h-.021v4.61h.025a3.2,3.2,0,0,0,1.8,2.686l.414.241a10.95,10.95,0,0,0,8.552.352,115.473,115.473,0,0,0,21.806-12.588,2.821,2.821,0,0,0,1.191-2.244h.019v-4.644Z" transform="translate(-309.111 -463.31)" fill="#3199f0"/><g transform="translate(98.994 282.62)" opacity="0.3" style="mix-blend-mode:overlay;isolation:isolate"><g transform="translate(0)"><g clip-path="url(#j)"><path d="M441.9,745.941a.015.015,0,0,1,0-.011,2.835,2.835,0,0,1-1.193,2.289A115.3,115.3,0,0,1,418.9,760.807a10.921,10.921,0,0,1-8.552-.356c-.141-.079-.273-.158-.416-.239a3.209,3.209,0,0,1-1.8-2.7s0,0,0,.009h-.021v4.61h.025a3.2,3.2,0,0,0,1.8,2.686l.414.241a10.95,10.95,0,0,0,8.552.352,115.473,115.473,0,0,0,21.806-12.588,2.821,2.821,0,0,0,1.191-2.244h.019v-4.644Z" transform="translate(-408.106 -745.93)"/></g></g></g><g transform="translate(98.994 294.204)" opacity="0.2" style="mix-blend-mode:overlay;isolation:isolate"><g transform="translate(0)"><g clip-path="url(#k)"><path d="M491.171,779.44c-.141-.079-.273-.158-.416-.24a3.208,3.208,0,0,1-1.8-2.7s0,0,0,.009h-.022v4.61h.025a3.205,3.205,0,0,0,1.8,2.686l.414.241a6.237,6.237,0,0,0,.946.433l0-4.606a5.919,5.919,0,0,1-.944-.437" transform="translate(-488.929 -776.504)"/></g></g></g><path d="M414.121,765.766a10.743,10.743,0,0,0,4.1-.746,116.1,116.1,0,0,0,21.919-12.652,3.417,3.417,0,0,0,1.408-2.533.52.52,0,0,0,.022-.15V745.04a.548.548,0,0,0-.355-.512.553.553,0,0,0-.087-.028.548.548,0,0,0-.61.288.571.571,0,0,0-.058.269,2.3,2.3,0,0,1-.986,1.835,114.819,114.819,0,0,1-21.69,12.518,10.354,10.354,0,0,1-8.054-.33l-.421-.242a2.705,2.705,0,0,1-1.523-2.171.56.56,0,0,0-.145-.419.547.547,0,0,0-.757-.047.539.539,0,0,0-.216.426v4.61a.539.539,0,0,0,.032.186,3.8,3.8,0,0,0,2.069,2.974l.41.24a10.283,10.283,0,0,0,4.946,1.13m26.353-16.216a.477.477,0,0,0-.019.138,2.283,2.283,0,0,1-.982,1.811,114.934,114.934,0,0,1-21.692,12.519,10.381,10.381,0,0,1-8.055-.327l-.414-.241a2.688,2.688,0,0,1-1.529-2.217.537.537,0,0,0-.026-.161v-2.043a4.884,4.884,0,0,0,1.006.76l.421.242a11.432,11.432,0,0,0,9.034.383,115.966,115.966,0,0,0,21.919-12.652q.18-.142.338-.294Z" transform="translate(-308.216 -462.414)" fill="#005bea"/><path d="M441.895,678.778a3.187,3.187,0,0,0-1.8-2.753c-.135-.075-.275-.156-.412-.237a10.96,10.96,0,0,0-8.551-.357,115.265,115.265,0,0,0-21.812,12.594,2.832,2.832,0,0,0-1.191,2.283h-.024l0,22.827h.022a3.163,3.163,0,0,0,1.8,2.855c.143.081.275.16.416.239a10.923,10.923,0,0,0,8.552.356A115.285,115.285,0,0,0,440.706,704a2.835,2.835,0,0,0,1.194-2.289h.017l0-22.928Z" transform="translate(-309.112 -419.089)" fill="#fff"/><path d="M490.149,707.555a2.832,2.832,0,0,0-1.192,2.282h-.023l0,22.827h.021a3.162,3.162,0,0,0,1.8,2.855c.143.081.276.16.416.239a5.911,5.911,0,0,0,.944.437v-30.02c-.652.463-1.339.906-1.971,1.38" transform="translate(-389.94 -438.617)" fill="#cee7fd"/><path d="M414.119,716.935a10.747,10.747,0,0,0,4.1-.747,115.969,115.969,0,0,0,21.919-12.652,3.433,3.433,0,0,0,1.413-2.6.515.515,0,0,0,.018-.132l0-22.929a.55.55,0,0,0-.017-.138,3.751,3.751,0,0,0-2.07-3.089q-.209-.116-.407-.234a11.462,11.462,0,0,0-9.044-.391A115.912,115.912,0,0,0,408.1,686.687a3.439,3.439,0,0,0-1.41,2.568.486.486,0,0,0-.025.153l0,22.827a.564.564,0,0,0,.017.137,3.765,3.765,0,0,0,2.078,3.191l.421.242a10.216,10.216,0,0,0,4.935,1.13m26.355-16.254a.5.5,0,0,0-.017.136,2.3,2.3,0,0,1-.986,1.851,114.842,114.842,0,0,1-21.69,12.518,10.354,10.354,0,0,1-8.054-.33l-.421-.242a2.622,2.622,0,0,1-1.523-2.347.541.541,0,0,0-.021-.183l0-22.528a.484.484,0,0,0,.024-.156,2.3,2.3,0,0,1,.984-1.845,114.775,114.775,0,0,1,21.7-12.524,10.382,10.382,0,0,1,8.055.331c.136.081.282.164.421.242a2.652,2.652,0,0,1,1.517,2.262.547.547,0,0,0,.017.15Z" transform="translate(-308.216 -418.188)" fill="#005bea"/><path d="M408.109,678.114l.023,0V678.1a2.827,2.827,0,0,1,1.189-2.236,115.471,115.471,0,0,1,21.808-12.592,10.965,10.965,0,0,1,8.554.357c.141.082.277.16.414.237a3.224,3.224,0,0,1,1.8,2.68c0-.007,0-.013,0-.017h.017v4.64H441.9a2.827,2.827,0,0,1-1.19,2.244A114.9,114.9,0,0,1,418.9,686a10.93,10.93,0,0,1-8.548-.352c-.138-.079-.273-.163-.414-.241a3.2,3.2,0,0,1-1.8-2.693l-.026.006Z" transform="translate(-309.113 -411.538)" fill="#3199f0"/><g transform="translate(98.994 254.994)" opacity="0.3" style="mix-blend-mode:overlay;isolation:isolate"><g transform="translate(0)"><g clip-path="url(#l)"><path d="M408.109,684.6l.023,0a3.2,3.2,0,0,0,1.8,2.686c.139.079.275.16.412.241a10.957,10.957,0,0,0,8.552.357,115.154,115.154,0,0,0,21.806-12.592,2.823,2.823,0,0,0,1.192-2.263v0c0-.007,0-.013,0-.017h.017v4.64H441.9a2.826,2.826,0,0,1-1.19,2.244A114.908,114.908,0,0,1,418.9,692.487a10.931,10.931,0,0,1-8.548-.352c-.138-.079-.273-.163-.414-.241a3.2,3.2,0,0,1-1.8-2.693l-.026.006Z" transform="translate(-408.107 -673.016)"/></g></g></g><g transform="translate(99.808 251.154)" opacity="0.2" style="mix-blend-mode:overlay;isolation:isolate"><g transform="translate(0)"><g clip-path="url(#m)"><path d="M435.645,679.255l-.081-3.831c.169-.094-.288-1.367-.9-2.878q-2.613,1.707-5.035,3.51a3.359,3.359,0,0,0-.4.391l4.864,2.812a1.714,1.714,0,0,0,1.552,0M452.67,668.4l-5.266-3.042c1.324-.645,2.663-1.282,4.034-1.9a8.992,8.992,0,0,1,2.268-.583c.35.933.555,1.619.436,1.689l.081,3.83a1.723,1.723,0,0,1-1.552,0" transform="translate(-429.229 -662.882)"/></g></g></g><g transform="translate(98.994 266.565)" opacity="0.2" style="mix-blend-mode:overlay;isolation:isolate"><g transform="translate(0)"><g clip-path="url(#n)"><path d="M492.083,706.93c.009.009.011.007.013,0a6.761,6.761,0,0,1-.959-.438c-.136-.081-.273-.163-.412-.241a3.194,3.194,0,0,1-1.8-2.7c0,.011,0,.009,0,.015l-.023,0,0,4.61.025-.006a3.2,3.2,0,0,0,1.8,2.692c.141.079.276.163.414.241a6.382,6.382,0,0,0,.944.431Z" transform="translate(-488.895 -703.554)"/></g></g></g><path d="M414.118,686.353a10.739,10.739,0,0,0,4.1-.746,115.6,115.6,0,0,0,21.927-12.652,3.415,3.415,0,0,0,1.407-2.541.514.514,0,0,0,.02-.141v-4.64a.554.554,0,0,0-.027-.169,3.812,3.812,0,0,0-2.065-2.967c-.141-.079-.276-.157-.415-.237a11.47,11.47,0,0,0-9.04-.387A116.076,116.076,0,0,0,408.1,674.529a3.432,3.432,0,0,0-1.406,2.526.492.492,0,0,0-.027.159l0,4.61a.547.547,0,0,0,.032.185,3.794,3.794,0,0,0,2.069,2.976c.08.044.151.087.222.13l.194.113a10.264,10.264,0,0,0,4.936,1.126m26.356-16.209a.485.485,0,0,0-.017.131,2.283,2.283,0,0,1-.981,1.811,114.424,114.424,0,0,1-21.7,12.518,10.379,10.379,0,0,1-8.052-.327l-.18-.106c-.079-.047-.159-.094-.24-.139a2.679,2.679,0,0,1-1.522-2.217.546.546,0,0,0-.025-.163l0-4.276a.545.545,0,0,0,.024-.158,2.3,2.3,0,0,1,.981-1.821,114.969,114.969,0,0,1,21.693-12.522,10.391,10.391,0,0,1,8.057.331c.143.082.281.162.42.24a2.7,2.7,0,0,1,1.522,2.21.54.54,0,0,0,.019.139Z" transform="translate(-308.216 -410.638)" fill="#005bea"/><path d="M444.864,639a.347.347,0,0,0,0-.069v-11.8c0-3.916-1.533-7.049-4.211-8.595s-6.165-1.307-9.565.657c-6.06,3.5-10.809,11.716-10.809,18.711v11.823a1.46,1.46,0,0,0,.867,1.23,4.623,4.623,0,0,0,4.192,0,1.466,1.466,0,0,0,.867-1.228V637.913c0-4.907,3.594-11.127,7.847-13.582,1.492-.863,2.853-1.108,3.638-.654s1.249,1.744,1.249,3.461l0,11.885h.006a1.5,1.5,0,0,0,.863,1.159,4.63,4.63,0,0,0,4.194,0,1.5,1.5,0,0,0,.86-1.157h0Z" transform="translate(-316.674 -383.562)" fill="#fff"/><path d="M441.187,619.538a8.988,8.988,0,0,1,7.636-1.053c-2.657-1.456-6.075-1.2-9.415.726-6.06,3.5-10.809,11.716-10.809,18.711v11.823a1.461,1.461,0,0,0,.867,1.23,4.221,4.221,0,0,0,1.968.487V636.422c0-6.31,4.284-13.726,9.752-16.884M450,630.924v9.748a4.226,4.226,0,0,1-1.877-.478,1.5,1.5,0,0,1-.863-1.16h-.006l0-11.885c0-1.717-.468-3.011-1.249-3.461a2.77,2.77,0,0,0-2.116,0c.045-.017.079-.043.124-.06,6.788-2.609,5.985,5.387,5.985,7.3" transform="translate(-324.993 -383.572)" fill="#cee7fd"/><path d="M422.344,651.117a4.822,4.822,0,0,0,2.373-.579,2,2,0,0,0,1.139-1.708V637.014c0-4.736,3.469-10.738,7.575-13.109,1.283-.741,2.5-1,3.091-.654s.976,1.515.976,2.988l0,11.885a.562.562,0,0,0,.015.128,2.063,2.063,0,0,0,1.128,1.505,5.157,5.157,0,0,0,4.739,0,2.048,2.048,0,0,0,1.128-1.54.528.528,0,0,0,.008-.089.886.886,0,0,0,0-.11V626.24c0-4.117-1.634-7.423-4.484-9.068s-6.539-1.407-10.111.658c-6.214,3.586-11.082,12.014-11.082,19.184v11.823a1.974,1.974,0,0,0,1.14,1.7,4.809,4.809,0,0,0,2.366.576m13.5-29.11a6.16,6.16,0,0,0-2.956.952c-4.4,2.541-8.12,8.978-8.12,14.055v11.823c0,.262-.213.535-.594.755a4.085,4.085,0,0,1-3.644,0c-.383-.221-.6-.493-.595-.747V637.014c0-6.817,4.628-14.828,10.536-18.238,3.225-1.864,6.512-2.1,9.018-.658s3.937,4.4,3.937,8.121v11.8c0,.01,0,.02,0,.03s0,.018,0,.027a1,1,0,0,1-.588.715,4.089,4.089,0,0,1-3.647,0c-.368-.211-.577-.465-.591-.717a.448.448,0,0,0-.005-.05l0-11.8c0-1.942-.555-3.377-1.523-3.935a2.429,2.429,0,0,0-1.228-.3" transform="translate(-315.778 -382.663)" fill="#005bea"/><path d="M436.7,729.188c1.3-.752,2.349-.143,2.349,1.353a4.985,4.985,0,0,1-.942,2.7,2.088,2.088,0,0,0-.391,1.126v2.124a2.254,2.254,0,0,1-1.018,1.762c-.562.324-1.019.06-1.019-.585v-2.122a.633.633,0,0,0-.389-.677,1.507,1.507,0,0,1-.946-1.612,5.2,5.2,0,0,1,2.355-4.07" transform="translate(-316.189 -452.711)" fill="#3199f0"/><g transform="translate(118.159 276.169)" opacity="0.2" style="mix-blend-mode:overlay;isolation:isolate"><g transform="translate(0)"><g clip-path="url(#o)"><path d="M439.006,737.086a2.289,2.289,0,0,0,.6-1.4l0-2.123a2.1,2.1,0,0,1,.393-1.127,4.966,4.966,0,0,0,.946-2.7,2.273,2.273,0,0,0-.141-.805,1.679,1.679,0,0,1,.32-.024,2,2,0,0,0-1.089.308,5.2,5.2,0,0,0-2.355,4.07,1.507,1.507,0,0,0,.946,1.612.633.633,0,0,1,.388.677Z" transform="translate(-437.672 -728.902)"/></g></g></g><path d="M435.347,738.039a1.463,1.463,0,0,0,.73-.212,2.773,2.773,0,0,0,1.291-2.235v-2.125a1.561,1.561,0,0,1,.295-.815,5.55,5.55,0,0,0,1.038-3.011,1.965,1.965,0,0,0-3.168-1.827,5.717,5.717,0,0,0-2.629,4.543,2.044,2.044,0,0,0,1.31,2.128.426.426,0,0,1,.024.161v2.122a1.245,1.245,0,0,0,.572,1.129,1.064,1.064,0,0,0,.537.141m1.508-9.527a.672.672,0,0,1,.338.082,1.163,1.163,0,0,1,.415,1.047,4.437,4.437,0,0,1-.846,2.392,2.625,2.625,0,0,0-.486,1.435v2.125a1.728,1.728,0,0,1-.745,1.288.426.426,0,0,1-.187.065c.009,0-.012-.056-.012-.177v-2.122a1.167,1.167,0,0,0-.781-1.2c-.482-.142-.554-.743-.554-1.088a4.666,4.666,0,0,1,2.081-3.6h0a1.61,1.61,0,0,1,.775-.248" transform="translate(-315.292 -451.811)" fill="#005bea"/><path d="M37.386,346.53l-11.973,6.912v7.335l10.824,6.25,11.973-6.914v-7.335Z" transform="translate(229.591 -215.236)" fill="#fff"/><g transform="translate(265.827 137.542)" opacity="0.5"><g transform="translate(0)"><g clip-path="url(#p)"><path d="M25.412,377.269l11.974-6.914v-7.334l-11.973,6.914Z" transform="translate(-25.412 -363.021)" fill="#cee7fd"/></g></g></g><path d="M57.012,372.108l10.824,6.25v-7.334l-10.824-6.25Z" transform="translate(197.992 -226.567)" fill="#cee7fd"/><path d="M35.339,366.677a.547.547,0,0,0,.274-.073l11.974-6.914a.546.546,0,0,0,.273-.473v-7.334a.547.547,0,0,0-.274-.474l-10.824-6.248a.546.546,0,0,0-.547,0l-11.972,6.912a.547.547,0,0,0-.274.474v7.334a.546.546,0,0,0,.273.473l10.824,6.25a.545.545,0,0,0,.273.073M46.766,358.9l-11.427,6.6-10.277-5.934v-6.7l11.426-6.6L46.766,352.2Z" transform="translate(230.488 -214.34)" fill="#005bea"/><path d="M1.052,492.826v-3.184a1.443,1.443,0,0,1,.855-1.193l42.834-24.7a4.578,4.578,0,0,1,4.143,0L65.7,473.452a1.457,1.457,0,0,1,.858,1.2v3.131l-.009,0a1.412,1.412,0,0,1-.846,1.253L22.865,503.741a4.6,4.6,0,0,1-4.144,0L1.911,494.031a1.451,1.451,0,0,1-.857-1.205Z" transform="translate(220.475 -287.732)" fill="#3199f0"/><g transform="translate(228.202 178.858)" opacity="0.3" style="mix-blend-mode:overlay;isolation:isolate"><g clip-path="url(#q)"><path d="M89.349,473.227,49.941,495.98c2.084-1.206-.277-3.449-1.444-5.412l32.08-18.5c3.5,1.032,7.065,2.147,8.772,1.161" transform="translate(-48.497 -472.066)"/></g></g><g transform="translate(221.527 186.917)" opacity="0.3" style="mix-blend-mode:overlay;isolation:isolate"><g clip-path="url(#r)"><path d="M1.907,507.137a1.263,1.263,0,0,0,0,2.391l16.813,9.707a4.581,4.581,0,0,0,4.142,0L65.7,494.531a1.453,1.453,0,0,0,.855-1.194h0v3.131l-.008,0a1.411,1.411,0,0,1-.846,1.253L22.866,522.43a4.6,4.6,0,0,1-4.144,0L1.91,512.72a1.452,1.452,0,0,1-.857-1.205h0v-3.184a1.443,1.443,0,0,1,.855-1.193" transform="translate(-1.052 -493.337)"/></g></g><path d="M20.143,503.978a4.622,4.622,0,0,0,2.268-.549l42.836-24.706a1.846,1.846,0,0,0,1.047-1.526.394.394,0,0,0,.007-.074v-3.131a1.831,1.831,0,0,0-1.058-1.543l-16.812-9.708a4.95,4.95,0,0,0-4.541,0l-42.834,24.7A1.817,1.817,0,0,0,0,488.987v3.181a.258.258,0,0,0,0,.038,1.862,1.862,0,0,0,1.056,1.513l16.811,9.708a4.633,4.633,0,0,0,2.273.551M65.5,477.043a.325.325,0,0,0-.008.105c.019.316-.211.63-.649.884L22.013,502.737a4.221,4.221,0,0,1-3.745,0l-16.81-9.708a1.093,1.093,0,0,1-.658-.856.237.237,0,0,0,0-.04v-3.147a1.092,1.092,0,0,1,.655-.848l42.835-24.7a4.209,4.209,0,0,1,3.744,0l16.812,9.708a1.105,1.105,0,0,1,.659.852Z" transform="translate(221.128 -287.074)" fill="#005bea"/><path d="M49.679,471.756c2.206-1.271,3.721.045,6.571-1.6,3.284-1.9,3.284-7.872,6.567-9.77a1.959,1.959,0,0,1,2.1-.158v0l.032.018s.008.005.012.005l2,1.155h0c.034.019.061.044.093.062l-.013-.008a8.164,8.164,0,0,1,1.524,1.492c-.088-.094-.177-.193-.265-.293a2.682,2.682,0,0,0,1.1-.386c3.283-1.894,4.261-7.142,6.566-8.47a1.137,1.137,0,0,1,1.233-.042l0-.006,2.019,1.166v0c2.16,1.152,2.55,9.672,5.382,8.035L45.179,485.71l-2.073-1.2c3.289-1.9,3.287-10.859,6.573-12.757" transform="translate(186.509 -281.737)" fill="#cee7fd"/><g transform="translate(229.616 171.861)" opacity="0.7" style="mix-blend-mode:overlay;isolation:isolate"><g transform="translate(0)"><g clip-path="url(#s)"><path d="M93.408,454.925v-.006l-2.019-1.166,0,.006a1.137,1.137,0,0,0-1.233.042c-2.305,1.329-3.283,6.576-6.566,8.47a2.682,2.682,0,0,1-1.1.386c.784.9,1.6,1.714,3.169.81,3.281-1.9,4.262-7.143,6.565-8.47a1.149,1.149,0,0,1,1.182-.073M63.882,471.756c2.206-1.271,3.721.045,6.571-1.6,3.284-1.9,3.284-7.872,6.567-9.77a1.959,1.959,0,0,1,2.1-.158v0l.032.018s.008.005.012.005l2,1.155h0c.034.019.061.044.093.062a1.936,1.936,0,0,0-2.155.119c-3.284,1.894-3.283,7.871-6.566,9.768-2.849,1.644-4.364.327-6.573,1.6-3.284,1.9-3.284,10.858-6.57,12.755l-2.073-1.2c3.289-1.9,3.287-10.859,6.573-12.757" transform="translate(-57.309 -453.598)"/></g></g></g><path d="M44.525,485.453a.4.4,0,0,0,.2-.053l39.409-22.753a.4.4,0,0,0-.4-.691h0a.775.775,0,0,1-.71.114c-.807-.306-1.439-2.2-2-3.871-.626-1.878-1.217-3.654-2.229-4.249a.433.433,0,0,0-.048-.033l-2.019-1.165a.36.36,0,0,0-.071-.033,1.532,1.532,0,0,0-1.564.081c-1.148.662-1.961,2.151-2.822,3.727-.963,1.767-2.057,3.769-3.746,4.744a2.569,2.569,0,0,1-.738.3,5.474,5.474,0,0,0-1.192-1.1l-.006,0c-.017-.013-.033-.024-.047-.033a.283.283,0,0,0-.046-.031l-2-1.155-.031-.016-.019-.011a.212.212,0,0,0-.027-.013,2.372,2.372,0,0,0-2.465.177c-1.757,1.017-2.62,3.081-3.451,5.077-.817,1.96-1.59,3.812-3.114,4.693a6.642,6.642,0,0,1-3.535.893,5.877,5.877,0,0,0-3.036.707h0c-1.779,1.028-2.637,3.864-3.467,6.607-.784,2.6-1.6,5.28-3.1,6.15a.4.4,0,0,0,0,.691l2.072,1.2a.4.4,0,0,0,.2.053m37.948-22.77-37.948,21.91-1.34-.774c1.428-1.241,2.193-3.771,2.936-6.226.785-2.595,1.6-5.277,3.1-6.148a5.079,5.079,0,0,1,2.663-.6,7.4,7.4,0,0,0,3.908-1c1.759-1.015,2.62-3.08,3.453-5.077.816-1.96,1.589-3.812,3.114-4.693a1.552,1.552,0,0,1,1.7-.158.233.233,0,0,0,.031.015l0,0,.021.012,1.952,1.128.03.019.036.026a.374.374,0,0,0,.036.024h0l.011.006,0,0a5.172,5.172,0,0,1,1.057,1.007l.081.091.01.012q.106.121.214.238l.059.064h0a.4.4,0,0,0,.69-.31,3.661,3.661,0,0,0,.632-.3c1.882-1.086,3.032-3.193,4.047-5.052.8-1.475,1.564-2.867,2.518-3.418a.742.742,0,0,1,.831-.045.348.348,0,0,0,.071.034l1.9,1.1a.371.371,0,0,0,.081.051c.76.426,1.362,2.23,1.893,3.823.62,1.858,1.208,3.621,2.2,4.233" transform="translate(187.164 -281.081)" fill="#005bea"/><path d="M44.2,481.8c2.876-1.66,3.724.341,6.573-1.3,3.284-1.9,3.282-13.448,6.566-15.344a1.156,1.156,0,0,1,1.286-.028v0l2.008,1.161v0c1.759.981,3.419,7.222,3.141,6.691.044-.022.088-.036.136-.062,3.281-1.9,3.281-6.278,6.565-8.175a1.427,1.427,0,0,1,1.553-.076l2.043,1.179c1.871,1.069,2.365,6.615,5.041,5.066L39.707,493.656l-2.073-1.2c3.286-1.9,3.287-8.768,6.57-10.664" transform="translate(194.055 -288.486)" fill="#fff"/><path d="M87.374,465.841l-2.046-1.183a1.427,1.427,0,0,0-1.553.076c-3.283,1.9-3.283,6.278-6.565,8.175-.049.026-.093.04-.136.062.564,1.081,1.243,1.689,2.208,1.133,3.282-1.893,3.284-6.278,6.568-8.173a1.425,1.425,0,0,1,1.525-.09M57.5,481.8c2.876-1.66,3.724.341,6.573-1.3,3.284-1.9,3.282-13.448,6.566-15.344a1.156,1.156,0,0,1,1.286-.028v0l2.008,1.161v0a1.157,1.157,0,0,0-1.22.064c-3.284,1.894-3.282,13.447-6.568,15.344-2.849,1.646-3.7-.354-6.569,1.305-3.286,1.9-3.286,8.767-6.572,10.663l-2.073-1.2c3.286-1.9,3.287-8.768,6.57-10.664" transform="translate(180.758 -288.486)" fill="#cee7fd"/><path d="M39.054,493.4a.4.4,0,0,0,.2-.053l39.4-22.751.006,0a.4.4,0,0,0-.4-.691,1.152,1.152,0,0,1-.931.18c-.705-.218-1.256-1.374-1.791-2.492a6.221,6.221,0,0,0-1.921-2.756l-2.042-1.178a1.819,1.819,0,0,0-1.953.076,9.456,9.456,0,0,0-3.437,4.248,9.443,9.443,0,0,1-2.772,3.7c-.414-1.644-1.738-5.494-3.186-6.376a.352.352,0,0,0-.046-.031l-2.008-1.161-.033-.017a1.552,1.552,0,0,0-1.651.048c-1.791,1.034-2.608,4.381-3.473,7.924-.787,3.224-1.6,6.557-3.094,7.42a4.347,4.347,0,0,1-3.034.6,5.173,5.173,0,0,0-3.538.709c-1.765,1.02-2.625,3.315-3.458,5.535-.783,2.09-1.594,4.251-3.114,5.129a.4.4,0,0,0,0,.691l2.075,1.2a.4.4,0,0,0,.2.053m37.768-22.666L39.054,492.54l-1.329-.768c1.41-1.142,2.174-3.183,2.917-5.163.782-2.089,1.592-4.248,3.11-5.125a4.386,4.386,0,0,1,3.065-.6,5.078,5.078,0,0,0,3.507-.7c1.789-1.033,2.606-4.379,3.471-7.921.787-3.225,1.6-6.56,3.1-7.423a.755.755,0,0,1,.872-.037.541.541,0,0,0,.056.03l1.921,1.111a.4.4,0,0,0,.05.032c1.328.742,2.759,5.3,2.947,6.246a.4.4,0,0,0,.034.283.416.416,0,0,0,.438.241.409.409,0,0,0,.246-.14,9.471,9.471,0,0,0,3.441-4.251c.816-1.562,1.588-3.037,3.129-3.927a1.017,1.017,0,0,1,1.148-.08l2.049,1.183a5.857,5.857,0,0,1,1.6,2.407c.553,1.158,1.122,2.351,2,2.8" transform="translate(194.708 -287.83)" fill="#005bea"/><path d="M31.367,495.716c2.874-1.66,3.718.581,6.568-1.064,3.285-1.9,2.219-5.368,5.5-7.265s4.836,0,7.636-1.644c3.266-1.923,2.736-3.143,5.051-4.489,3.277-1.909,4.8,1.611,8.08-.289l4.838,2.794-39.41,22.753-4.837-2.794c3.288-1.9,3.288-6.11,6.573-8" transform="translate(208.994 -298.55)" fill="#cee7fd"/><g transform="translate(233.788 182.116)" opacity="0.7" style="mix-blend-mode:overlay;isolation:isolate"><g clip-path="url(#t)"><path d="M60.96,484.045c-2.314,1.347-1.786,2.567-5.052,4.489-2.8,1.644-4.35-.254-7.635,1.644s-2.215,5.368-5.5,7.263c-2.851,1.646-3.7-.6-6.568,1.063-3.287,1.9-3.285,6.111-6.574,8.007l-4.837-2.794c3.288-1.895,3.287-6.109,6.573-8,2.874-1.66,3.718.581,6.568-1.064,3.285-1.9,2.219-5.368,5.5-7.265s4.836,0,7.636-1.644c3.266-1.923,2.736-3.143,5.051-4.489,3.277-1.909,4.8,1.611,8.081-.289l4.838,2.794c-3.283,1.9-4.807-1.622-8.081.286" transform="translate(-24.794 -480.666)"/></g></g><path d="M28.978,506.261a.391.391,0,0,0,.2-.053l39.409-22.753a.4.4,0,0,0,0-.691l-4.836-2.794a.4.4,0,0,0-.4,0,3.893,3.893,0,0,1-3.714.109,4.686,4.686,0,0,0-4.368.18,6.755,6.755,0,0,0-2.143,1.95,8.908,8.908,0,0,1-2.908,2.54,5.359,5.359,0,0,1-3.3.675,7.223,7.223,0,0,0-4.335.967,6.806,6.806,0,0,0-2.918,3.824,6.079,6.079,0,0,1-2.584,3.44,3.845,3.845,0,0,1-3.007.48,4.7,4.7,0,0,0-3.561.585,9.454,9.454,0,0,0-3.437,4.156,8.708,8.708,0,0,1-3.137,3.847.4.4,0,0,0,0,.691l4.839,2.793a.4.4,0,0,0,.2.053m38.612-23.152L28.978,505.4,24.9,503.048a10.481,10.481,0,0,0,2.878-3.794,8.7,8.7,0,0,1,3.132-3.843h0a3.926,3.926,0,0,1,3.036-.488,4.664,4.664,0,0,0,3.531-.577A6.808,6.808,0,0,0,40.4,490.52a6.081,6.081,0,0,1,2.579-3.438,6.377,6.377,0,0,1,3.914-.86,6.148,6.148,0,0,0,3.725-.785,9.7,9.7,0,0,0,3.133-2.735,6.006,6.006,0,0,1,1.916-1.753,3.88,3.88,0,0,1,3.713-.114,4.738,4.738,0,0,0,4.164-.062Z" transform="translate(209.647 -297.9)" fill="#005bea"/></g><g transform="translate(73.746 117.683)"><g clip-path="url(#u)"><path d="M446.464,402.959c0,2.054,1.442,2.887,3.225,1.857l50.459-29.133a7.123,7.123,0,0,0,3.225-5.579V322.613c0-2.055-1.442-2.885-3.225-1.855l-50.459,29.131a7.116,7.116,0,0,0-3.227,5.58Z" transform="translate(-458.847 -316.636)" fill="#cee7fd"/></g></g><g clip-path="url(#a)"><path d="M424.664,431.7c0,2.027,1.422,2.849,3.181,1.832l49.787-28.745a7.027,7.027,0,0,0,3.18-5.505V352.42c0-2.027-1.422-2.847-3.18-1.832l-49.787,28.744a7.021,7.021,0,0,0-3.183,5.506Z" transform="translate(-354.28 -217.486)" fill="#fff"/><path d="M425.413,433.57a3.5,3.5,0,0,0,1.731-.52L476.93,404.3a7.6,7.6,0,0,0,3.488-6.035V351.412a2.535,2.535,0,0,0-4.1-2.362l-49.786,28.744a7.591,7.591,0,0,0-3.49,6.035l0,46.857a2.807,2.807,0,0,0,1.237,2.588,2.239,2.239,0,0,0,1.132.3m52.636-83.811a1.03,1.03,0,0,1,.521.128,1.688,1.688,0,0,1,.623,1.525V398.27a6.459,6.459,0,0,1-2.874,4.975L426.532,431.99a1.349,1.349,0,0,1-2.264-1.3l0-46.857a6.454,6.454,0,0,1,2.876-4.974l49.788-28.744a2.306,2.306,0,0,1,1.118-.353" transform="translate(-353.273 -216.478)" fill="#005bea"/><path d="M478.414,389.493l5.515-3.18c.424-.247.764-.046.764.435v6.359a1.692,1.692,0,0,1-.764,1.321l-5.507,3.182c-.425.244-.769.046-.766-.442l0-6.356a1.669,1.669,0,0,1,.755-1.319m-9.155,5.288,5.509-3.184c.425-.24.765-.044.765.439v6.355a1.685,1.685,0,0,1-.762,1.325l-5.512,3.181c-.42.243-.761.046-.764-.44l0-6.359a1.679,1.679,0,0,1,.761-1.318M460.1,400.07l5.512-3.182c.419-.244.762-.048.762.438v6.356a1.687,1.687,0,0,1-.76,1.323l-5.514,3.182c-.422.244-.764.046-.764-.44v-6.359a1.681,1.681,0,0,1,.764-1.318m18.32-21.138,5.508-3.183c.422-.244.762-.046.762.438l0,6.361a1.679,1.679,0,0,1-.764,1.317l-5.512,3.181c-.419.247-.761.05-.764-.439v-6.355a1.678,1.678,0,0,1,.767-1.32M460.1,389.507l5.509-3.183c.422-.244.765-.047.765.437l0,6.361a1.7,1.7,0,0,1-.762,1.319l-5.514,3.181c-.423.244-.764.047-.764-.438l0-6.358a1.67,1.67,0,0,1,.76-1.32m9.158,15.837,5.512-3.18c.422-.246.762-.049.765.44l0,6.354a1.684,1.684,0,0,1-.762,1.322l-5.512,3.181c-.424.245-.764.05-.764-.441v-6.354a1.692,1.692,0,0,1,.764-1.322m-9.158,5.29,5.514-3.182c.421-.247.764-.047.76.435v6.36a1.687,1.687,0,0,1-.765,1.321l-5.512,3.182c-.419.242-.761.048-.761-.441v-6.356a1.681,1.681,0,0,1,.764-1.319m18.317-.015,5.512-3.18c.422-.245.764-.045.764.44v6.356a1.689,1.689,0,0,1-.764,1.322l-5.512,3.181c-.421.241-.761.047-.761-.441v-6.358a1.68,1.68,0,0,1,.761-1.32m-9.161,5.288,5.515-3.18c.421-.244.765-.047.762.436l0,6.358a1.7,1.7,0,0,1-.762,1.322l-5.515,3.183c-.42.242-.761.048-.761-.441l0-6.358a1.7,1.7,0,0,1,.761-1.32m-18.313-21.112,5.513-3.182c.418-.245.76-.05.76.437v6.357a1.675,1.675,0,0,1-.765,1.321l-5.512,3.185c-.419.242-.761.045-.761-.443v-6.358a1.67,1.67,0,0,1,.764-1.318m0,21.128,5.508-3.184c.423-.243.765-.046.765.437l0,6.359a1.683,1.683,0,0,1-.757,1.321l-5.513,3.182c-.422.242-.767.047-.764-.44V417.24a1.677,1.677,0,0,1,.764-1.318m0,10.562,5.51-3.182c.421-.242.763-.049.763.439V430.1a1.7,1.7,0,0,1-.76,1.32l-5.513,3.181c-.422.245-.764.045-.764-.439V427.8a1.67,1.67,0,0,1,.764-1.319m-9.161-15.838,5.51-3.182c.426-.243.766-.048.766.439v6.358a1.688,1.688,0,0,1-.761,1.319l-5.515,3.186c-.422.24-.761.042-.763-.441l0-6.362a1.679,1.679,0,0,1,.761-1.316m0-10.563,5.51-3.184c.424-.24.766-.045.766.439v6.357a1.691,1.691,0,0,1-.766,1.326l-5.51,3.178c-.422.245-.761.05-.761-.441V401.4a1.678,1.678,0,0,1,.761-1.319m0,21.125,5.512-3.181c.419-.244.761-.049.761.438v6.356a1.682,1.682,0,0,1-.766,1.323l-5.51,3.182c-.421.243-.761.049-.763-.442l0-6.355a1.68,1.68,0,0,1,.763-1.322" transform="translate(-364.359 -233.319)" fill="#cee7fd"/><path d="M469.263,392.888l5.512-3.183c.422-.243.762-.047.762.437l0,6.358a1.683,1.683,0,0,1-.768,1.32L469.26,401c-.417.242-.757.047-.761-.442V394.2a1.689,1.689,0,0,1,.764-1.315m9.163,15.837,5.507-3.183c.419-.244.764-.047.763.438v6.356a1.687,1.687,0,0,1-.761,1.322l-5.517,3.184c-.417.242-.761.047-.761-.442v-6.355a1.689,1.689,0,0,1,.769-1.32M460.1,429.865l5.508-3.185c.422-.241.766-.045.769.439l0,6.359a1.7,1.7,0,0,1-.762,1.321l-5.512,3.181c-.419.242-.764.048-.764-.439v-6.36a1.685,1.685,0,0,1,.764-1.317m-9.161-15.843,5.517-3.179c.42-.243.76-.047.76.437l0,6.358a1.684,1.684,0,0,1-.766,1.321l-5.512,3.184c-.419.24-.761.046-.764-.441l0-6.359a1.7,1.7,0,0,1,.761-1.32m-9.158,26.415,5.51-3.181c.424-.243.765-.047.765.439v6.356a1.673,1.673,0,0,1-.765,1.322l-5.51,3.184c-.421.241-.761.048-.763-.441l0-6.357a1.692,1.692,0,0,1,.761-1.322" transform="translate(-364.362 -241.987)" fill="#3199f0"/><path d="M172.716,613.016a7.756,7.756,0,0,1-3.511,6.073l-40.163,23.189c-1.941,1.117-3.507.214-3.507-2.022l0-17.384a7.766,7.766,0,0,1,3.513-6.079L169.2,593.609c1.936-1.119,3.515-.213,3.511,2.026Z" transform="translate(67.151 -368.403)" fill="#fff"/><path d="M126.321,642.308a3.886,3.886,0,0,0,1.919-.575l40.164-23.19a8.416,8.416,0,0,0,3.863-6.678V594.483a2.824,2.824,0,0,0-4.562-2.632l-40.16,23.185a8.433,8.433,0,0,0-3.862,6.684l0,17.385a3.125,3.125,0,0,0,1.374,2.874,2.488,2.488,0,0,0,1.262.33m43.3-49.628a1.116,1.116,0,0,1,.565.139,1.842,1.842,0,0,1,.679,1.664v17.382a7.1,7.1,0,0,1-3.164,5.466L127.542,640.52a1.462,1.462,0,0,1-2.456-1.416l0-17.384a7.112,7.112,0,0,1,3.163-5.471L168.4,593.064a2.518,2.518,0,0,1,1.22-.384" transform="translate(68.301 -367.251)" fill="#005bea"/><path d="M143.576,641.2c0,.536.378.755.842.485L176.246,623.3a1.851,1.851,0,0,0,.84-1.455c0-.538-.382-.757-.84-.486l-31.828,18.37a1.887,1.887,0,0,0-.842,1.463m5.849,4.387c0,.543.382.751.843.489l25.978-15a1.867,1.867,0,0,0,.84-1.459c0-.529-.375-.753-.84-.482l-25.98,15a1.847,1.847,0,0,0-.841,1.451m5.847-7.257a1.867,1.867,0,0,1,.84-1.453l20.129-11.621c.469-.277.845-.054.845.481a1.868,1.868,0,0,1-.841,1.459l-20.13,11.621c-.464.263-.846.054-.842-.487" transform="translate(55.945 -385.867)" fill="#cee7fd"/></g></g></g></g></g></svg>